<svg xmlns="http://www.w3.org/2000/svg" width="880" height="228" viewBox="0 0 880 228" role="img" aria-labelledby="t d" font-family='system-ui, -apple-system, "Segoe UI", Roboto, sans-serif'>
<title id="t">Where the result comes from</title>
<desc id="d">Where the result comes from. zai/glm-5.3-flash patterns 524, model 1107, local search 323, only together 0; deepseek/deepseek-v4.1-flash patterns 525, model 1114, local search 352, only together 0.</desc>
<rect x="0.5" y="0.5" width="879" height="227" rx="12" fill="#fcfcfb" stroke="rgba(11,11,11,0.10)"/>
<text x="28" y="38" font-size="17" font-weight="600" fill="#0b0b0b">Where the result comes from</text>
<text x="28" y="60" font-size="12.5" fill="#52514e">synthetic-v1, test split · 100 of 395 documents · share of covered labels, deterministic-first</text>
<rect x="28" y="78" width="12" height="12" rx="3" fill="#2a78d6"/><text x="46" y="88" font-size="12" fill="#52514e">patterns</text><rect x="117.76" y="78" width="12" height="12" rx="3" fill="#eb6834"/><text x="135.76" y="88" font-size="12" fill="#52514e">model</text><rect x="187.36" y="78" width="12" height="12" rx="3" fill="#1baf7a"/><text x="205.36" y="88" font-size="12" fill="#52514e">local search</text>
<text x="222.16" y="133" font-size="12" fill="#0b0b0b" text-anchor="end">zai/glm-5.3-flash</text>
<g><title>zai/glm-5.3-flash, patterns: 524 (27%)</title><path d="M232.16 120H372.25V138H232.16Z" fill="#2a78d6"/></g>
<text x="302.2" y="133" font-size="10.5" font-weight="600" fill="#ffffff" text-anchor="middle">27%</text>
<g><title>zai/glm-5.3-flash, model: 1107 (57%)</title><path d="M374.25 120H672.42V138H374.25Z" fill="#eb6834"/></g>
<text x="523.33" y="133" font-size="10.5" font-weight="600" fill="#ffffff" text-anchor="middle">57%</text>
<g><title>zai/glm-5.3-flash, local search: 323 (17%)</title><path d="M674.42 120H758Q762 120 762 124V134Q762 138 758 138H674.42Z" fill="#1baf7a"/></g>
<text x="718.21" y="133" font-size="10.5" font-weight="600" fill="#0b0b0b" text-anchor="middle">17%</text>
<text x="770" y="133" font-size="10.5" fill="#52514e">1954 of 2099</text>
<text x="222.16" y="161" font-size="12" fill="#0b0b0b" text-anchor="end">deepseek/deepseek-v4.1-flash</text>
<g><title>deepseek/deepseek-v4.1-flash, patterns: 525 (26%)</title><path d="M232.16 148H369.87V166H232.16Z" fill="#2a78d6"/></g>
<text x="301.02" y="161" font-size="10.5" font-weight="600" fill="#ffffff" text-anchor="middle">26%</text>
<g><title>deepseek/deepseek-v4.1-flash, model: 1114 (56%)</title><path d="M371.87 148H666.33V166H371.87Z" fill="#eb6834"/></g>
<text x="519.1" y="161" font-size="10.5" font-weight="600" fill="#ffffff" text-anchor="middle">56%</text>
<g><title>deepseek/deepseek-v4.1-flash, local search: 352 (18%)</title><path d="M668.33 148H758Q762 148 762 152V162Q762 166 758 166H668.33Z" fill="#1baf7a"/></g>
<text x="715.16" y="161" font-size="10.5" font-weight="600" fill="#0b0b0b" text-anchor="middle">18%</text>
<text x="770" y="161" font-size="10.5" fill="#52514e">1991 of 2099</text>
<text x="28" y="210" font-size="11" fill="#898781">Only together: a value no single pass covered in full, such as a name the model found half of.</text>
</svg>
