<svg xmlns="http://www.w3.org/2000/svg" width="880" height="507" viewBox="0 0 880 507" role="img" aria-labelledby="t d" font-family='system-ui, -apple-system, "Segoe UI", Roboto, sans-serif'>
<title id="t">Throughput against concurrency</title>
<desc id="d">Throughput against concurrency. gpt-5.6-luna: 1 1.1, 2 2.0, 4 4.2, 8 8.1; gpt-6-luna: 1 1.4, 2 3.1, 4 6.3, 8 12.</desc>
<rect x="0.5" y="0.5" width="879" height="506" rx="12" fill="#1a1a19" stroke="rgba(255,255,255,0.10)"/>
<text x="28" y="38" font-size="17" font-weight="600" fill="#ffffff">Throughput against concurrency</text>
<text x="28" y="60" font-size="12.5" fill="#c3c2b7">synthetic-v1, test split · the same sample of documents at each level</text>
<line x1="28" y1="84" x2="40" y2="84" stroke="#3987e5" stroke-width="2" stroke-linecap="round"/><circle cx="34" cy="84" r="3" fill="#3987e5"/><text x="46" y="88" font-size="12" fill="#c3c2b7">gpt-5.6-luna</text><line x1="144.64000000000001" y1="84" x2="156.64000000000001" y2="84" stroke="#d95926" stroke-width="2" stroke-linecap="round"/><circle cx="150.64000000000001" cy="84" r="3" fill="#d95926"/><text x="162.64" y="88" font-size="12" fill="#c3c2b7">gpt-6-luna</text>
<line x1="80" y1="408" x2="702" y2="408" stroke="#383835"/>
<text x="72" y="412" font-size="11" fill="#898781" text-anchor="end">0</text>
<line x1="80" y1="352" x2="702" y2="352" stroke="#2c2c2a"/>
<text x="72" y="356" font-size="11" fill="#898781" text-anchor="end">3</text>
<line x1="80" y1="296" x2="702" y2="296" stroke="#2c2c2a"/>
<text x="72" y="300" font-size="11" fill="#898781" text-anchor="end">6</text>
<line x1="80" y1="240" x2="702" y2="240" stroke="#2c2c2a"/>
<text x="72" y="244" font-size="11" fill="#898781" text-anchor="end">9</text>
<line x1="80" y1="184" x2="702" y2="184" stroke="#2c2c2a"/>
<text x="72" y="188" font-size="11" fill="#898781" text-anchor="end">12</text>
<line x1="80" y1="128" x2="702" y2="128" stroke="#2c2c2a"/>
<text x="72" y="132" font-size="11" fill="#898781" text-anchor="end">15</text>
<text x="80" y="426" font-size="11" fill="#898781" text-anchor="middle">1</text>
<text x="287.33" y="426" font-size="11" fill="#898781" text-anchor="middle">2</text>
<text x="494.67" y="426" font-size="11" fill="#898781" text-anchor="middle">4</text>
<text x="702" y="426" font-size="11" fill="#898781" text-anchor="middle">8</text>
<text x="391" y="446" font-size="11.5" fill="#c3c2b7" text-anchor="middle">in flight at once</text>
<text x="22" y="114" font-size="11.5" fill="#c3c2b7">documents per minute</text>
<polyline points="80,387.65 287.33,370.85 494.67,329.04 702,257.17" fill="none" stroke="#3987e5" stroke-width="2" stroke-linejoin="round" stroke-linecap="round"/>
<g><title>gpt-5.6-luna, 1: 1.1</title><circle cx="80" cy="387.65" r="12" fill="transparent"/><circle cx="80" cy="387.65" r="4.5" fill="#3987e5" stroke="#1a1a19" stroke-width="2"/></g>
<g><title>gpt-5.6-luna, 2: 2.0</title><circle cx="287.33" cy="370.85" r="12" fill="transparent"/><circle cx="287.33" cy="370.85" r="4.5" fill="#3987e5" stroke="#1a1a19" stroke-width="2"/></g>
<g><title>gpt-5.6-luna, 4: 4.2</title><circle cx="494.67" cy="329.04" r="12" fill="transparent"/><circle cx="494.67" cy="329.04" r="4.5" fill="#3987e5" stroke="#1a1a19" stroke-width="2"/></g>
<g><title>gpt-5.6-luna, 8: 8.1</title><circle cx="702" cy="257.17" r="12" fill="transparent"/><circle cx="702" cy="257.17" r="4.5" fill="#3987e5" stroke="#1a1a19" stroke-width="2"/></g>
<polyline points="80,382.24 287.33,349.2 494.67,289.47 702,178.21" fill="none" stroke="#d95926" stroke-width="2" stroke-linejoin="round" stroke-linecap="round"/>
<g><title>gpt-6-luna, 1: 1.4</title><circle cx="80" cy="382.24" r="12" fill="transparent"/><circle cx="80" cy="382.24" r="4.5" fill="#d95926" stroke="#1a1a19" stroke-width="2"/></g>
<g><title>gpt-6-luna, 2: 3.1</title><circle cx="287.33" cy="349.2" r="12" fill="transparent"/><circle cx="287.33" cy="349.2" r="4.5" fill="#d95926" stroke="#1a1a19" stroke-width="2"/></g>
<g><title>gpt-6-luna, 4: 6.3</title><circle cx="494.67" cy="289.47" r="12" fill="transparent"/><circle cx="494.67" cy="289.47" r="4.5" fill="#d95926" stroke="#1a1a19" stroke-width="2"/></g>
<g><title>gpt-6-luna, 8: 12 (the model pass was cut short at this level)</title><circle cx="702" cy="178.21" r="12" fill="transparent"/><circle cx="702" cy="178.21" r="4" fill="#1a1a19" stroke="#d95926" stroke-width="2"/></g>
<text x="712" y="182.21" font-size="11.5" fill="#ffffff">gpt-6-luna  12</text>
<text x="712" y="261.17" font-size="11.5" fill="#ffffff">gpt-5.6-luna  8.1</text>
<text x="28" y="474" font-size="11" fill="#898781">Hollow marker: the model pass was cut short at this level. Concurrency is documents and model calls in flight at once</text>
<text x="28" y="489" font-size="11" fill="#898781">(ANONIFY_AI_CONCURRENCY). One run, one afternoon, one network.</text>
</svg>
